<!-- Generated by IcoMoon.io -->
<svg version="1.1" xmlns="http://www.w3.org/2000/svg" width="146" height="24" viewBox="0 0 146 24">
<title>logo</title>
<path fill="#242d52" d="M40.014 16.809v-8.256c0-1.577 0.366-2.82 1.098-3.73 0.733-0.91 1.65-1.365 2.75-1.365 2.158 0 3.237 1.577 3.237 4.731v8.62h3.782v-9.58c0-2.415-0.5-4.22-1.503-5.417-1.002-1.197-2.433-1.795-4.294-1.795-1.222 0-2.34 0.234-3.352 0.703-1.029 0.481-1.888 1.174-2.548 2.027l-0.012 0.016h-0.066c-0.98-1.831-2.62-2.746-4.922-2.746-0.969 0-1.902 0.217-2.799 0.653-0.934 0.465-1.719 1.097-2.343 1.865l-0.010 0.013h-0.050v-2.283h-3.782v16.527h3.782v-8.239c0-1.577 0.372-2.82 1.115-3.73s1.693-1.365 2.849-1.365c2.19 0 3.286 1.577 3.286 4.731v8.62h3.782zM61.115 17.057c2.246 0 3.997-0.827 5.252-2.482h0.050v2.217h3.616v-16.527h-3.782v1.985h-0.066c-1.255-1.489-2.955-2.233-5.103-2.233-0.016-0-0.036-0-0.055-0-2.213 0-4.209 0.926-5.623 2.412l-0.003 0.003c-0.705 0.75-1.26 1.66-1.668 2.73-0.387 1.001-0.611 2.159-0.611 3.369 0 0.025 0 0.050 0 0.075l-0-0.004c0 1.258 0.203 2.416 0.61 3.475s0.964 1.952 1.669 2.68c0.7 0.719 1.544 1.293 2.486 1.678l0.049 0.018c0.921 0.382 1.992 0.604 3.114 0.604 0.023 0 0.047-0 0.070-0l-0.004 0zM61.71 13.616c-1.399 0-2.538-0.466-3.419-1.398s-1.321-2.132-1.321-3.599c0-1.555 0.454-2.804 1.362-3.747 0.909-0.943 2.040-1.414 3.394-1.414 1.343 0 2.458 0.493 3.345 1.48 0.886 0.988 1.33 2.215 1.33 3.681 0 1.467-0.455 2.667-1.363 3.599s-2.018 1.398-3.328 1.398zM88.822 16.809v-9.745c0-2.393-0.536-4.166-1.61-5.319-1.072-1.152-2.557-1.728-4.45-1.728-0.012-0-0.026-0-0.040-0-1.092 0-2.129 0.238-3.062 0.664l0.046-0.019c-0.983 0.448-1.81 1.080-2.469 1.86l-0.008 0.010h-0.050v-2.268h-3.782v16.527h3.782v-8.304c0-1.588 0.388-2.823 1.164-3.706 0.777-0.882 1.814-1.323 3.113-1.323 0.595 0 1.104 0.077 1.528 0.231s0.796 0.406 1.115 0.753c0.32 0.348 0.556 0.819 0.71 1.415s0.231 1.323 0.231 2.183v8.769h3.782zM99.040 17.057c2.246 0 3.996-0.827 5.252-2.482h0.050v2.217h3.616v-16.527h-3.782v1.985h-0.066c-1.255-1.489-2.956-2.233-5.103-2.233-0.017-0-0.036-0-0.056-0-2.213 0-4.209 0.926-5.623 2.412l-0.003 0.003c-0.704 0.75-1.26 1.66-1.668 2.73-0.386 1-0.61 2.157-0.61 3.366 0 0.026 0 0.052 0 0.078l-0-0.004c0 1.258 0.203 2.416 0.61 3.475s0.964 1.952 1.668 2.68c0.7 0.719 1.545 1.293 2.487 1.678l0.049 0.018c0.921 0.382 1.992 0.604 3.114 0.604 0.023 0 0.046-0 0.069-0l-0.004 0zM99.634 13.616c-1.398 0-2.538-0.466-3.418-1.398s-1.322-2.132-1.322-3.599c0-1.555 0.455-2.804 1.363-3.747s2.040-1.414 3.394-1.414c1.343 0 2.458 0.493 3.344 1.48 0.886 0.988 1.33 2.215 1.33 3.681 0 1.467-0.455 2.667-1.363 3.599s-2.018 1.398-3.328 1.398zM118.704 23.741c1.2 0 2.274-0.14 3.22-0.422 0.947-0.281 1.743-0.673 2.387-1.175 0.644-0.506 1.179-1.118 1.586-1.814l0.016-0.030c0.405-0.687 0.721-1.483 0.906-2.329l0.010-0.054c0.188-0.86 0.281-1.803 0.281-2.829v-14.823h-3.782v1.737h-0.066c-0.657-0.629-1.44-1.134-2.305-1.473l-0.048-0.017c-0.815-0.324-1.758-0.512-2.746-0.512-0.007 0-0.015 0-0.022 0h0.001c-1.508 0-2.862 0.358-4.062 1.075s-2.134 1.713-2.8 2.987c-0.666 1.273-0.999 2.705-0.999 4.293 0 1.61 0.35 3.038 1.049 4.285 0.699 1.246 1.66 2.203 2.882 2.87s2.598 1.001 4.129 1.001c2.047 0 3.716-0.673 5.004-2.018h0.066v1.753c0 1.17-0.43 2.14-1.288 2.912-0.86 0.772-2.070 1.158-3.634 1.158-1.068 0-2.006-0.132-2.816-0.397-0.809-0.265-1.742-0.678-2.799-1.24l-0.892 3.341c0.925 0.552 1.966 0.976 3.122 1.274s2.356 0.447 3.6 0.447zM118.836 13.021c-1.365 0-2.491-0.434-3.377-1.3-0.887-0.865-1.33-2.026-1.33-3.482 0-1.4 0.435-2.542 1.305-3.425s2.004-1.323 3.402-1.323c1.332 0 2.442 0.435 3.328 1.307s1.33 2.002 1.33 3.391c0 1.401-0.433 2.556-1.297 3.466s-1.985 1.365-3.361 1.365zM137.922 17.057c1.542 0 2.899-0.281 4.071-0.844 1.173-0.562 2.133-1.323 2.882-2.283l-2.642-2.266c-1.035 1.301-2.406 1.952-4.113 1.952-1.21 0-2.237-0.337-3.080-1.010-0.842-0.672-1.384-1.593-1.627-2.762h12.024c0.066-0.397 0.099-0.9 0.099-1.506 0-1.599-0.325-3.027-0.975-4.285-0.645-1.248-1.604-2.256-2.773-2.943l-0.034-0.018c-1.222-0.717-2.632-1.075-4.228-1.075-0.018-0-0.040-0-0.061-0-1.128 0-2.203 0.228-3.18 0.64l0.054-0.020c-0.99 0.414-1.844 0.99-2.56 1.729-0.715 0.739-1.277 1.638-1.684 2.696-0.407 1.060-0.611 2.212-0.611 3.458 0 1.688 0.369 3.185 1.106 4.492 0.738 1.307 1.746 2.308 3.023 3.003s2.714 1.042 4.31 1.042zM141.737 6.783h-8.257c0.264-1.059 0.776-1.878 1.535-2.457 0.76-0.579 1.663-0.868 2.709-0.868 1.057 0 1.93 0.298 2.618 0.893 0.688 0.596 1.153 1.406 1.395 2.432z"></path>
<path fill="#f3603c" d="M2.786 10.286c1.538 0 2.785 1.279 2.785 2.857 0 1.577-1.247 2.857-2.785 2.857s-2.786-1.28-2.786-2.857c0-1.578 1.247-2.857 2.786-2.857zM2.786 0c1.538 0 2.784 1.28 2.784 2.857s-1.247 2.857-2.785 2.857-2.785-1.279-2.785-2.857c0-1.577 1.247-2.857 2.786-2.857zM12.814 0c1.539 0 2.786 1.28 2.786 2.857s-1.247 2.857-2.786 2.857c-1.538 0-2.785-1.279-2.785-2.857 0-1.577 1.247-2.857 2.785-2.857z"></path>
<path fill="#f3603c" opacity="0.5" d="M15.6 13.257c0 1.578-1.247 2.857-2.786 2.857s-2.786-1.279-2.786-2.857c0-1.578 1.247-2.857 2.786-2.857s2.786 1.279 2.786 2.857z"></path>
</svg>
